<?xml version="1.0" standalone="no"?>
<!DOCTYPE svg PUBLIC "-//W3C//DTD SVG 20010904//EN"
 "http://www.w3.org/TR/2001/REC-SVG-20010904/DTD/svg10.dtd">
<svg version="1.0" xmlns="http://www.w3.org/2000/svg"
 width="800.000000pt" height="800.000000pt" viewBox="0 0 800.000000 800.000000"
 preserveAspectRatio="xMidYMid meet">
<metadata>
Created by potrace 1.14, written by Peter Selinger 2001-2017
</metadata>
<g transform="translate(0.000000,800.000000) scale(0.100000,-0.100000)"
fill="#000000" stroke="none">
<path d="M5914 6129 c-82 -105 -156 -199 -164 -209 -8 -10 -22 -27 -30 -37
-40 -48 -317 -400 -335 -424 -11 -15 -76 -99 -145 -186 -120 -151 -220 -285
-643 -861 -104 -142 -192 -258 -195 -259 -4 -1 -137 180 -297 403 -159 222
-318 443 -353 489 l-63 85 -75 0 c-44 0 -74 -4 -72 -10 3 -8 416 -583 676
-942 54 -74 91 -135 88 -143 -3 -8 -123 -175 -267 -372 -456 -621 -525 -717
-544 -745 l-17 -28 79 0 79 0 87 118 c122 166 525 719 605 830 36 50 69 92 72
92 7 0 72 -89 501 -681 l258 -356 81 -2 c44 -1 80 1 80 5 0 5 -324 455 -597
829 -40 55 -80 110 -89 122 -9 13 -45 62 -79 109 l-63 86 62 89 c33 49 118
171 188 271 70 101 145 210 168 243 260 376 584 844 596 860 8 11 109 157 225
325 116 168 240 347 276 398 35 50 62 92 60 92 -2 0 -70 -86 -153 -191z"/>
<path d="M9 5110 c0 -11 0 -508 0 -1105 0 -597 0 -1092 0 -1100 1 -11 14 -15
55 -15 30 0 61 3 69 6 12 4 15 143 16 1027 1 562 4 1023 5 1025 2 2 46 -58 97
-132 460 -666 565 -818 574 -834 6 -9 24 -35 40 -58 17 -22 70 -98 118 -170
106 -155 173 -252 336 -489 69 -99 154 -223 190 -275 36 -52 140 -194 231
-315 91 -121 302 -401 469 -622 167 -222 304 -403 307 -403 2 0 -21 35 -50 78
-29 42 -187 277 -351 522 -164 245 -433 645 -598 890 -164 245 -400 596 -523
780 -124 184 -357 531 -518 770 l-292 435 -87 3 c-82 3 -87 2 -88 -18z"/>
<path d="M1890 4011 l0 -1120 763 0 762 0 0 60 c0 52 -2 59 -20 59 -11 1 -323
1 -692 1 l-673 0 0 492 0 492 643 0 642 0 0 50 c1 28 -1 55 -2 60 -2 7 -217
10 -631 9 -345 0 -633 2 -639 4 -10 3 -13 102 -13 448 l0 444 683 2 682 3 1
58 1 57 -753 0 -754 0 0 -1119z"/>
<path d="M5389 5123 c-1 -5 -2 -32 -3 -60 l-1 -53 392 0 393 0 0 -27 c1 -16 2
-491 3 -1058 l2 -1030 68 -2 67 -2 0 1059 0 1060 394 0 394 0 3 33 c2 17 3 44
1 60 l-3 27 -855 0 c-470 0 -855 -3 -855 -7z"/>
<path d="M7760 3543 c-90 -26 -130 -75 -125 -153 4 -62 49 -100 147 -124 109
-26 139 -47 130 -93 -15 -77 -183 -84 -212 -8 -6 15 -15 22 -27 20 -10 -2 -26
-4 -37 -4 -26 -1 -13 -47 23 -84 82 -84 271 -65 317 31 22 46 14 115 -16 147
-21 22 -98 53 -174 70 -48 10 -76 35 -76 65 0 79 151 97 191 24 15 -29 79 -36
79 -8 0 36 -43 87 -90 106 -27 11 -106 18 -130 11z"/>
<path d="M7455 3532 c-6 -4 -10 -73 -9 -167 2 -193 -5 -228 -46 -245 -39 -16
-88 2 -96 36 -5 20 -13 24 -43 24 -37 0 -37 -1 -33 -32 2 -18 14 -44 26 -57
37 -42 79 -52 173 -42 27 2 81 62 87 95 4 19 7 98 7 177 0 235 3 214 -29 216
-15 1 -32 -1 -37 -5z"/>
<path d="M7056 3134 c-32 -31 -14 -84 29 -84 47 1 68 47 36 79 -25 25 -44 26
-65 5z"/>
</g>
</svg>
